<svg width="122" height="19" viewBox="0 0 122 19" fill="none" xmlns="http://www.w3.org/2000/svg">
<path d="M19.3421 1.92794H1.91746V4.08274H5.33621L5.3933 12.2482H8.67786V4.08274H19.4444V10.4384H14.6488V18.4314H3.58492V16.5035H12.7313V8.51049H17.527V6.01068H10.5953V14.1761H3.48928L3.43219 6.01068H0V0H19.3421V1.92794Z" fill="#0A1B2B"/>
<path d="M33.8323 3.22017H23.9616V5.0746H27.8211V15.48H29.9557V5.0746H33.8323V3.22017Z" fill="#0A1B2B"/>
<path fill-rule="evenodd" clip-rule="evenodd" d="M35.2402 12.5438C35.1491 12.2233 35.1036 11.8913 35.1036 11.5479H41.593C41.6727 10.884 41.6271 10.243 41.4563 9.62482C41.297 8.99523 41.0351 8.44005 40.6708 7.95927C40.3065 7.47849 39.8454 7.09501 39.2875 6.80884C38.7411 6.51121 38.1206 6.3624 37.4261 6.3624C36.7658 6.3624 36.1738 6.48832 35.6501 6.74015C35.1264 6.99199 34.6767 7.3354 34.301 7.77039C33.9366 8.19393 33.652 8.69188 33.4471 9.26424C33.2536 9.82515 33.1568 10.4204 33.1568 11.05C33.1568 11.7368 33.2479 12.3664 33.43 12.9388C33.6236 13.5111 33.9025 14.0033 34.2668 14.4154C34.6425 14.8275 35.0979 15.148 35.633 15.377C36.1681 15.6059 36.7829 15.7204 37.4773 15.7204C37.9555 15.7204 38.4109 15.6517 38.8435 15.5144C39.2875 15.3884 39.686 15.1996 40.0389 14.9477C40.3919 14.6844 40.6936 14.3639 40.944 13.9862C41.1945 13.6084 41.371 13.1791 41.4734 12.6984H39.6291C39.4583 13.1906 39.1964 13.5626 38.8435 13.8145C38.502 14.0549 38.0466 14.175 37.4773 14.175C37.0675 14.175 36.7145 14.1064 36.4185 13.969C36.1225 13.8202 35.8778 13.6256 35.6842 13.3852C35.4907 13.1448 35.3427 12.8644 35.2402 12.5438ZM39.4412 9.36726C39.5551 9.65344 39.6234 9.95106 39.6461 10.2601H35.1036C35.115 9.92817 35.1776 9.6191 35.2914 9.33292C35.4167 9.04674 35.5761 8.80063 35.7696 8.59458C35.9745 8.37709 36.2136 8.2111 36.4869 8.09663C36.7715 7.97072 37.0846 7.90776 37.4261 7.90776C37.7563 7.90776 38.0523 7.97644 38.3141 8.1138C38.5874 8.23972 38.8151 8.41143 38.9972 8.62892C39.1908 8.83497 39.3388 9.08108 39.4412 9.36726Z" fill="#0A1B2B"/>
<path d="M48.8792 8.33702C49.2435 8.61175 49.4655 9.02385 49.5452 9.57331H51.492C51.4465 9.02385 51.3099 8.54879 51.0822 8.14815C50.8545 7.7475 50.5585 7.41553 50.1942 7.15225C49.8412 6.88896 49.4314 6.69436 48.9646 6.56844C48.5092 6.43108 48.0254 6.3624 47.513 6.3624C46.7844 6.3624 46.1469 6.48832 45.6004 6.74015C45.0653 6.98054 44.6156 7.31823 44.2513 7.75322C43.887 8.17676 43.6137 8.68044 43.4316 9.26424C43.2494 9.84804 43.1583 10.4719 43.1583 11.1358C43.1583 11.7883 43.2494 12.395 43.4316 12.9559C43.6251 13.5168 43.904 14.0033 44.2684 14.4154C44.6327 14.8161 45.0767 15.1366 45.6004 15.377C46.1355 15.6059 46.7503 15.7204 47.4447 15.7204C48.5832 15.7204 49.494 15.4171 50.1771 14.8104C50.8716 14.1922 51.3099 13.3051 51.492 12.1489H49.5452C49.4542 12.7899 49.2208 13.2879 48.8451 13.6428C48.4808 13.9976 48.014 14.175 47.4447 14.175C47.0235 14.175 46.6649 14.0892 46.3689 13.9175C46.0729 13.7343 45.8281 13.4997 45.6345 13.2135C45.4524 12.9273 45.3158 12.6011 45.2247 12.2348C45.145 11.8685 45.1051 11.5021 45.1051 11.1358C45.1051 10.4605 45.1848 9.91672 45.3442 9.50463C45.5036 9.08108 45.7028 8.75484 45.9419 8.5259C46.181 8.28551 46.4429 8.12525 46.7275 8.04512C47.0121 7.95354 47.2796 7.90776 47.5301 7.90776C48.0766 7.90776 48.5263 8.05085 48.8792 8.33702Z" fill="#0A1B2B"/>
<path d="M55.5336 3.22017H53.5868V15.48H55.5336V10.243C55.5336 9.92245 55.5849 9.6191 55.6873 9.33292C55.7898 9.04674 55.9321 8.80063 56.1142 8.59458C56.2964 8.37709 56.5184 8.2111 56.7803 8.09663C57.0421 7.97072 57.3381 7.90776 57.6683 7.90776C58.2489 7.90776 58.6758 8.06802 58.9491 8.38853C59.2223 8.69761 59.3703 9.20128 59.3931 9.89955V15.48H61.3399V9.38443C61.3399 8.37709 61.061 7.62158 60.5031 7.11791C59.9453 6.61423 59.1825 6.3624 58.2148 6.3624C57.6341 6.3624 57.1047 6.49976 56.6266 6.77449C56.1598 7.03778 55.8069 7.36974 55.5678 7.77039H55.5336V3.22017Z" fill="#0A1B2B"/>
<path d="M66.0228 13.8316C65.6471 13.6027 65.4308 13.202 65.3739 12.6297H63.4271C63.4384 13.1563 63.5409 13.6141 63.7344 14.0033C63.9394 14.3811 64.2126 14.7016 64.5542 14.9649C64.9071 15.2167 65.3169 15.4056 65.7837 15.5315C66.2619 15.6574 66.7799 15.7204 67.3378 15.7204C67.7932 15.7204 68.2542 15.6689 68.721 15.5659C69.1878 15.4628 69.609 15.2969 69.9847 15.0679C70.3718 14.839 70.6849 14.5414 70.924 14.175C71.1631 13.8087 71.2826 13.3623 71.2826 12.8357C71.2826 12.4007 71.1972 12.0344 71.0264 11.7368C70.8671 11.4392 70.6508 11.1931 70.3775 10.9985C70.1157 10.8039 69.814 10.6493 69.4724 10.5349C69.1309 10.4204 68.7836 10.3231 68.4307 10.243C68.0664 10.1628 67.7135 10.0884 67.3719 10.0197C67.0304 9.95106 66.723 9.87094 66.4497 9.77936C66.1879 9.67633 65.9716 9.55042 65.8008 9.4016C65.6414 9.25279 65.5617 9.05819 65.5617 8.8178C65.5617 8.6232 65.6186 8.46866 65.7325 8.35419C65.8463 8.22828 65.983 8.1367 66.1423 8.07946C66.3131 8.01078 66.4896 7.96499 66.6717 7.9421C66.8653 7.9192 67.0304 7.90776 67.167 7.90776C67.5996 7.90776 67.981 7.98789 68.3112 8.14815C68.6527 8.30841 68.869 8.6232 68.9601 9.09253H70.9923C70.9354 8.60031 70.7931 8.18249 70.5654 7.83907C70.3491 7.48421 70.0701 7.19804 69.7286 6.98054C69.3984 6.76305 69.0227 6.60851 68.6015 6.51693C68.1916 6.41391 67.759 6.3624 67.3036 6.3624C66.9051 6.3624 66.4839 6.40246 66.0399 6.48259C65.6073 6.56272 65.2088 6.70581 64.8445 6.91186C64.4915 7.10646 64.1955 7.36974 63.9565 7.70171C63.7288 8.02223 63.6149 8.42288 63.6149 8.90365C63.6149 9.35009 63.6946 9.72785 63.854 10.0369C64.0134 10.3345 64.224 10.5807 64.4859 10.7753C64.7591 10.9699 65.0608 11.1244 65.391 11.2389C65.7325 11.3533 66.0854 11.4506 66.4497 11.5308C66.8027 11.6109 67.1499 11.6853 67.4915 11.754C67.833 11.8227 68.1347 11.9085 68.3966 12.0115C68.6698 12.1031 68.8918 12.229 69.0626 12.3893C69.2333 12.5496 69.3244 12.7556 69.3358 13.0074C69.3472 13.2593 69.2846 13.4653 69.1479 13.6256C69.0227 13.7744 68.8576 13.8889 68.6527 13.969C68.4478 14.0491 68.2258 14.1064 67.9867 14.1407C67.759 14.1636 67.5541 14.175 67.3719 14.175C66.8482 14.175 66.3985 14.0606 66.0228 13.8316Z" fill="#0A1B2B"/>
<path fill-rule="evenodd" clip-rule="evenodd" d="M74.9295 12.5438C74.8385 12.2233 74.7929 11.8913 74.7929 11.5479H81.2823C81.362 10.884 81.3164 10.243 81.1457 9.62482C80.9863 8.99523 80.7244 8.44005 80.3601 7.95927C79.9958 7.47849 79.5347 7.09501 78.9769 6.80884C78.4304 6.51121 77.8099 6.3624 77.1154 6.3624C76.4551 6.3624 75.8631 6.48832 75.3394 6.74015C74.8157 6.99199 74.366 7.3354 73.9903 7.77039C73.626 8.19393 73.3414 8.69188 73.1364 9.26424C72.9429 9.82515 72.8461 10.4204 72.8461 11.05C72.8461 11.7368 72.9372 12.3664 73.1194 12.9388C73.3129 13.5111 73.5918 14.0033 73.9561 14.4154C74.3318 14.8275 74.7872 15.148 75.3223 15.377C75.8574 15.6059 76.4722 15.7204 77.1667 15.7204C77.6448 15.7204 78.1002 15.6517 78.5329 15.5144C78.9769 15.3884 79.3753 15.1996 79.7283 14.9477C80.0812 14.6844 80.3829 14.3639 80.6334 13.9862C80.8838 13.6084 81.0603 13.1791 81.1628 12.6984H79.3184C79.1476 13.1906 78.8858 13.5626 78.5329 13.8145C78.1913 14.0549 77.7359 14.175 77.1667 14.175C76.7568 14.175 76.4039 14.1064 76.1079 13.969C75.8119 13.8202 75.5671 13.6256 75.3736 13.3852C75.18 13.1448 75.032 12.8644 74.9295 12.5438ZM79.1306 9.36726C79.2444 9.65344 79.3127 9.95106 79.3355 10.2601H74.7929C74.8043 9.92817 74.8669 9.6191 74.9808 9.33292C75.106 9.04674 75.2654 8.80063 75.4589 8.59458C75.6639 8.37709 75.9029 8.2111 76.1762 8.09663C76.4608 7.97072 76.7739 7.90776 77.1154 7.90776C77.4456 7.90776 77.7416 7.97644 78.0035 8.1138C78.2767 8.23972 78.5044 8.41143 78.6865 8.62892C78.8801 8.83497 79.0281 9.08108 79.1306 9.36726Z" fill="#0A1B2B"/>
<path d="M85.1189 6.60279H83.2746V15.48H85.2214V10.2086C85.2214 9.84232 85.2726 9.51607 85.3751 9.2299C85.489 8.94372 85.6313 8.70333 85.802 8.50873C85.9842 8.31413 86.1891 8.16532 86.4168 8.06229C86.6559 7.95927 86.9007 7.90776 87.1511 7.90776C87.7432 7.90776 88.1473 8.06802 88.3636 8.38853C88.5913 8.69761 88.7052 9.16121 88.7052 9.77936V15.48H90.652V10.2773C90.652 9.5218 90.8 8.938 91.096 8.5259C91.392 8.1138 91.8702 7.90776 92.5305 7.90776C92.9062 7.90776 93.2022 7.96499 93.4185 8.07946C93.6348 8.19393 93.7942 8.35992 93.8967 8.57741C94.0105 8.78346 94.0788 9.0353 94.1016 9.33292C94.1244 9.6191 94.1357 9.93962 94.1357 10.2945V15.48H96.0826V9.35009C96.0826 8.27406 95.8207 7.50711 95.297 7.04922C94.7847 6.59134 94.0617 6.3624 93.1282 6.3624C92.4793 6.3624 91.9385 6.49404 91.5058 6.75732C91.0732 7.02061 90.6918 7.38119 90.3617 7.83907C90.1681 7.3354 89.838 6.96337 89.3712 6.72298C88.9158 6.48259 88.4206 6.3624 87.8855 6.3624C87.5325 6.3624 87.2194 6.40246 86.9462 6.48259C86.673 6.55127 86.4282 6.64857 86.2119 6.77449C86.007 6.90041 85.8191 7.05495 85.6483 7.2381C85.4776 7.42125 85.3182 7.62158 85.1702 7.83907H85.1189V6.60279Z" fill="#0A1B2B"/>
<path fill-rule="evenodd" clip-rule="evenodd" d="M100.644 3.22017H98.6974V15.48H100.542V14.2609H100.576C100.724 14.5585 100.906 14.7989 101.122 14.9821C101.35 15.1652 101.601 15.314 101.874 15.4285C102.147 15.543 102.432 15.6174 102.728 15.6517C103.035 15.6975 103.337 15.7204 103.633 15.7204C104.282 15.7204 104.845 15.5945 105.323 15.3427C105.802 15.0794 106.194 14.736 106.502 14.3124C106.82 13.8774 107.054 13.3795 107.202 12.8186C107.361 12.2577 107.441 11.6796 107.441 11.0843C107.441 10.4318 107.356 9.81942 107.185 9.24707C107.014 8.67471 106.758 8.17676 106.416 7.75322C106.075 7.31823 105.642 6.98054 105.118 6.74015C104.606 6.48832 104.003 6.3624 103.308 6.3624C103.058 6.3624 102.802 6.39674 102.54 6.46542C102.289 6.52266 102.045 6.61423 101.805 6.74015C101.578 6.85462 101.367 6.99771 101.174 7.16942C100.98 7.34112 100.815 7.53573 100.678 7.75322H100.644V3.22017ZM105.34 9.88238C105.443 10.2601 105.494 10.6493 105.494 11.05C105.494 11.4392 105.449 11.8227 105.358 12.2004C105.278 12.5667 105.136 12.8987 104.931 13.1963C104.737 13.4825 104.487 13.7172 104.179 13.9003C103.872 14.0835 103.496 14.175 103.052 14.175C102.654 14.175 102.301 14.0949 101.993 13.9347C101.697 13.7744 101.441 13.5569 101.225 13.2822C101.008 13.0074 100.843 12.6812 100.73 12.3034C100.627 11.9142 100.576 11.4964 100.576 11.05C100.576 10.0999 100.781 9.33864 101.191 8.76629C101.612 8.19393 102.232 7.90776 103.052 7.90776C103.451 7.90776 103.803 7.99933 104.111 8.18249C104.418 8.35419 104.674 8.58886 104.879 8.88648C105.084 9.17266 105.238 9.50463 105.34 9.88238Z" fill="#0A1B2B"/>
<path d="M111.596 3.22017H109.65V15.48H111.596V3.22017Z" fill="#0A1B2B"/>
<path d="M115.391 6.60279H113.256L116.604 15.4457L116.382 16.1325C116.325 16.3271 116.262 16.4988 116.194 16.6476C116.125 16.7964 116.04 16.9224 115.938 17.0254C115.846 17.1398 115.727 17.2257 115.579 17.2829C115.431 17.3402 115.243 17.3688 115.015 17.3688C114.856 17.3688 114.702 17.3516 114.554 17.3173C114.406 17.2944 114.253 17.2715 114.093 17.2486V18.897C114.537 18.9657 114.987 19 115.442 19C115.955 19 116.376 18.9141 116.706 18.7424C117.036 18.5822 117.309 18.359 117.526 18.0728C117.753 17.7981 117.941 17.4775 118.089 17.1112C118.249 16.7449 118.408 16.3614 118.567 15.9608L122 6.60279H119.968L117.731 13.2307H117.697L115.391 6.60279Z" fill="#0A1B2B"/>
</svg>
